<?xml version="1.0" encoding="UTF-8"?><svg id="Ebene_2" xmlns="http://www.w3.org/2000/svg" viewBox="0 0 208.7783 48.8908"><defs><style>.cls-1{fill:#f28c18;}.cls-2{fill:#c2c2c2;}</style></defs><g id="Capa_1"><g><g><path class="cls-1" d="M41.7639,18.5411c.3506-.0232,.7045-.0788,1.0516-.2062,1.9425-.7145,2.942-2.8681,2.2277-4.8137-.7146-1.9427-2.8683-2.9389-4.8139-2.2244-1.0097,.3709-1.7562,1.1357-2.1471,2.0532l.7062,2.6652,2.9756,2.526Z"/><path class="cls-1" d="M56.5748,40.0095c-.7078-1.0653-3.7942-5.6947-4.48-6.7748,0,0-3.5929-8.947-3.9702-9.977l2.5712-.384c.6105-.0906,1.1525-.4396,1.4862-.9578l3.8345-5.936c.6439-.9965,.357-2.3265-.6375-2.9691-.9963-.6423-2.3248-.3571-2.9688,.6375l-3.3079,5.1209-7.164,1.6085-4.2907-3.6432-2.1186-7.9959c-.3034-1.1456-1.4793-1.8232-2.625-1.5247-1.1455,.3036-1.8281,1.4778-1.5247,2.625l2.2896,8.6467c.1126,.4227,.3504,.8034,.6862,1.0868l5.9142,5.0221c1.4242,3.8728,.8303,2.261,3.4201,9.3109l-2.1065,3.5209-3.4035-2.8449c-1.0919-.9123-2.7172-.7633-3.6298,.3254-.9123,1.0918-.7665,2.7171,.3256,3.6295l5.7181,4.779c.5954,.4964,1.3687,.6862,2.0832,.5619,.7429-.1259,1.3938-.5705,1.7796-1.2179l4.0442-6.7613,2.5527-.9225-4.3895,7.3417,7.1976,1.6302c1.0029,.2316,2.0813-.1693,2.6902-1.0498,.5974-.8673,.6073-2.0111,.0236-2.8884Z"/><path class="cls-1" d="M45.0533,7.2694c1.9422-.7147,2.9421-2.8683,2.2272-4.8139-.7144-1.9424-2.8681-2.9387-4.8139-2.2242-1.942,.7145-2.9385,2.8683-2.224,4.8106,.7112,1.9458,2.868,2.9421,4.8107,2.2275Z"/></g><g><path class="cls-2" d="M9.8281,12.4895H1c-.5523,0-1-.4477-1-1V6.5212c0-.5523,.4477-1,1-1H26.3008c.5523,0,1,.4477,1,1v4.9683c0,.5523-.4477,1-1,1h-8.8281v25.833c0,.5523-.4477,1-1,1h-5.6445c-.5523,0-1-.4477-1-1V12.4895Z"/><path class="cls-2" d="M63.9707,15.4016h5.3838c.5523,0,1,.4477,1,1v1.0278c1.5088-1.5078,3.5361-2.3916,6.1885-2.3916,6.4482,0,11.2324,5.252,11.2324,12.376,0,7.2803-4.7842,12.3247-11.2324,12.3247-2.6523,0-4.6797-.8843-6.1885-2.3921v10.5444c0,.5523-.4477,1-1,1h-5.3838c-.5523,0-1-.4477-1-1V16.4016c0-.5523,.4477-1,1-1Zm16.6156,12.4467c.1954-3.3148-1.841-5.8049-5.0619-5.8419-2.706-.0311-4.9699,2.192-5.1522,4.892-.2266,3.357,1.755,5.8286,4.9942,5.871,2.7324,.0358,5.059-2.1933,5.2199-4.9212Z"/><path class="cls-2" d="M93.2988,15.4016h5.3838c.5523,0,1,.4477,1,1v1.0278c1.5088-1.5078,3.5361-2.3916,6.1885-2.3916,6.4482,0,11.2324,5.252,11.2324,12.376,0,7.2803-4.7842,12.3247-11.2324,12.3247-2.6523,0-4.6797-.8843-6.1885-2.3921v10.5444c0,.5523-.4477,1-1,1h-5.3838c-.5523,0-1-.4477-1-1V16.4016c0-.5523,.4477-1,1-1Zm16.6156,12.4467c.1954-3.3148-1.841-5.8049-5.0619-5.8419-2.706-.0311-4.9699,2.192-5.1522,4.892-.2266,3.357,1.755,5.8286,4.9942,5.871,2.7324,.0358,5.059-2.1933,5.2199-4.9212Z"/><path class="cls-1" d="M122.626,5.5212h5.6445c.5523,0,1,.4477,1,1v12.2085h13.1045V6.5212c0-.5523,.4477-1,1-1h5.6445c.5523,0,1,.4477,1,1v31.8013c0,.5523-.4477,1-1,1h-5.6445c-.5523,0-1-.4477-1-1v-12.2085h-13.1045v12.2085c0,.5523-.4477,1-1,1h-5.6445c-.5523,0-1-.4477-1-1V6.5212c0-.5523,.4477-1,1-1Z"/><path class="cls-1" d="M155.4775,30.0144v-13.6128c0-.5523,.4477-1,1-1h5.3838c.5523,0,1,.4477,1,1v12.4683c0,4.0566,2.9121,4.6284,4.1602,4.6284,1.2998,0,4.0566-.5718,4.0566-4.6284v-12.4683c0-.5523,.4477-1,1-1h5.4365c.5523,0,1,.4477,1,1v21.9209c0,.5523-.4477,1-1,1h-5.4365c-.5523,0-1-.4477-1-1v-.9243c-1.8203,1.7686-4.2119,2.3403-6.3447,2.3403-4.1602,0-9.2559-2.1841-9.2559-9.7241Z"/><path class="cls-1" d="M191.3574,37.3464v.9761c0,.5523-.4477,1-1,1h-5.3838c-.5523,0-1-.4477-1-1V6.5212c0-.5523,.4477-1,1-1h5.3838c.5523,0,1,.4477,1,1v10.8564c1.5088-1.4561,3.5361-2.3398,6.1885-2.3398,6.4482,0,11.2324,5.0439,11.2324,12.3242,0,7.124-4.7842,12.3765-11.2324,12.3765-2.6523,0-4.6797-.8843-6.1885-2.3921Zm10.2291-9.5074c.2151-3.3409-1.824-5.7953-5.0573-5.8326-2.7056-.0312-4.9894,2.1836-5.1569,4.8841-.2067,3.33,1.7729,5.8368,4.9995,5.8786,2.7329,.0354,5.0391-2.2027,5.2147-4.9301Z"/></g></g></g></svg>