<!DOCTYPE svg PUBLIC "-//W3C//DTD SVG 1.1//EN" "http://www.w3.org/Graphics/SVG/1.1/DTD/svg11.dtd">
<svg height="200px" width="200px" version="1.1" id="Layer_1" xmlns="http://www.w3.org/2000/svg" xmlns:xlink="http://www.w3.org/1999/xlink" viewBox="0 0 512 512" xml:space="preserve" fill="#ffffff">
<g id="SVGRepo_bgCarrier" stroke-width="0"/>
<g id="SVGRepo_iconCarrier"> <path style="fill:#FF9A00;" d="M511.049,277.795c-4.315,50.496-23.017,97.512-53.703,136.4 c-10.699,13.572-22.871,26.162-36.401,37.561c-21.68,18.263-45.773,32.588-71.413,42.66C320.089,506.003,288.619,512,256.439,512 H256c-7.241-0.01-14.502-0.324-21.795-0.951c-22.725-1.943-44.948-6.844-66.178-14.607c-2.508-0.909-4.994-1.87-7.47-2.863 c-39.692-15.923-74.965-41.949-102.193-74.944c-8.421-10.218-16.08-21.105-22.86-32.567C10.657,344.026-1.461,296.497,0.147,247.83 c0.146-4.534,0.418-9.079,0.805-13.624c3.563-41.719,16.947-81.057,38.794-115.41c13.823-21.743,31.041-41.479,51.311-58.551 c27.311-23.017,58.457-39.755,91.682-49.66C206.319,3.553,230.946-0.041,256,0c7.23,0.01,14.512,0.324,21.795,0.951 c15.672,1.337,31.01,4.064,45.867,8.097c49.744,13.52,94.179,41.751,128.094,82.007c6.185,7.345,11.921,14.962,17.187,22.829 c25.64,38.251,40.277,82.237,42.691,128.073C512.261,253.796,512.074,265.769,511.049,277.795z"/> <path style="fill:#FF8900;" d="M511.049,277.795c-4.315,50.496-23.017,97.512-53.703,136.4 c-10.699,13.572-22.871,26.162-36.401,37.561c-21.68,18.263-45.773,32.588-71.413,42.66C320.089,506.003,288.619,512,256.439,512 H256V0c7.23,0.01,14.512,0.324,21.795,0.951c15.672,1.337,31.01,4.064,45.867,8.097c49.744,13.52,94.179,41.751,128.094,82.007 c6.185,7.345,11.921,14.962,17.187,22.829c25.64,38.251,40.277,82.237,42.691,128.073 C512.261,253.796,512.074,265.769,511.049,277.795z"/> <path style="fill:#8A6746;" d="M511.049,277.795c-4.315,50.496-23.017,97.512-53.703,136.4l-28.92-87.66l-90.22-23.164 l-16.592,51.06h-47.34v86.354l75.258,53.63C320.089,506.003,288.619,512,256.439,512H256c-7.241-0.01-14.502-0.324-21.795-0.951 c-22.725-1.943-44.948-6.844-66.178-14.607l74.903-55.469v-86.542h-52.554l-16.017-49.294l-88.872,25.984l-27.123,87.514 c-8.421-10.218-16.08-21.105-22.86-32.567C10.657,344.026-1.461,296.497,0.147,247.83l75.718,53.442l88.809-25.953l-14.847-45.7 l39.389-28.617l-58.583-83.857l-90.888,1.651c13.823-21.743,31.041-41.479,51.311-58.551c27.311-23.017,58.457-39.755,91.682-49.66 l-26.82,88.005l58.656,83.992L256,152.48l40.079,29.129l55.803-85.675l-28.22-86.887c49.744,13.52,94.179,41.751,128.094,82.007 c6.185,7.345,11.921,14.962,17.187,22.829h-91.348l-56.117,86.166l40.695,29.568l-14.262,43.882l89.426,22.965l74.297-54.508 C512.261,253.796,512.074,265.769,511.049,277.795z"/> <path style="fill:#664B33;" d="M511.049,277.795c-4.315,50.496-23.017,97.512-53.703,136.4l-28.92-87.66l-90.22-23.164 l-16.592,51.06h-47.34v86.354l75.258,53.63C320.089,506.003,288.619,512,256.439,512H256V152.48l40.079,29.129l55.803-85.675 l-28.22-86.887c49.744,13.52,94.179,41.751,128.094,82.007c6.185,7.345,11.921,14.962,17.187,22.829h-91.348l-56.117,86.166 l40.695,29.568l-14.262,43.882l89.426,22.965l74.297-54.508C512.261,253.796,512.074,265.769,511.049,277.795z"/> <g> </g> <g> </g> <g> </g> <g> </g> <g> </g> <g> </g> <g> </g> <g> </g> <g> </g> <g> </g> <g> </g> <g> </g> <g> </g> <g> </g> <g> </g> </g>
</svg>